<?xml version="1.0" encoding="UTF-8"?><svg id="Layer_1" xmlns="http://www.w3.org/2000/svg" viewBox="0 0 842.05 844.22"><path d="M402.42,5.72c-51.29,7.54-79.95,50.92-121.74,74.69-54.75,23.96-124.61,2.95-164.25,53.79,6.22-1.12,14.99-7.19,22.97-8.85" style="fill:none; stroke:#feddc8; stroke-miterlimit:10;"/><path d="M90.54,284.23c-5.26-60.45-98.43-19.28-51.44,50.59,8.83,10.6,17.62,23.59,23.97,36.72" style="fill:none; stroke:#feddc8; stroke-miterlimit:10;"/><path d="M63.06,371.54c-8.17-1.63-8.88,4.87-9.56,10.66" style="fill:none; stroke:#e9f9fc; stroke-miterlimit:10;"/><path d="M53.5,382.2c-10.21-21.89-31.55-37.03-36.72-60.83C-1.8,359.51-1.09,420.1,1.11,462.19" style="fill:none; stroke:#c9e0df; stroke-miterlimit:10;"/><path d="M1.11,462.19c4.7,64.89,24.31,138.11,89.87,165.78,21.23,10.18,65.53,20.09,82.35,44.17" style="fill:none; stroke:#c6dbdd; stroke-miterlimit:10;"/><path d="M173.33,672.13c5.19,10.73,11.17,26.9,8.65,37.38-17.91-56.34-90.78-50.26-123.95-84.43-3.63-.64,3.69,12.39,4.13,14.08,34.9,89.77,110.72,66.3,110.59,126.16,8.97.78,23.78-17.99,28.79-25.76" style="fill:none; stroke:#feddc8; stroke-miterlimit:10;"/><line x1="201.52" y1="739.56" x2="211.99" y2="770.5" style="fill:none; stroke:#e9f9fc; stroke-miterlimit:10;"/><path d="M211.99,770.5c-15.82-7.62,2.92,8.59,6.97,11.75,95.02,80.71,309.54,94.85,371.47-32.15" style="fill:none; stroke:#c6dbdd; stroke-miterlimit:10;"/><path d="M590.43,750.1c4.32,2.87,9.17,4.36,14.55,4.46" style="fill:none; stroke:#e9f9fc; stroke-miterlimit:10;"/><path d="M604.99,754.56c-6.54,9.24-12.73,21.51-17.74,28.56-15.44,27.54-69.24,49.91-22,32.83,61.67-23.88,120.77-56.71,163.66-107.52-10.01,3.91-19.13,11.73-30.09,14.74" style="fill:none; stroke:#feddc8; stroke-miterlimit:10;"/><path d="M698.81,723.17c1.89-6.6,1.63-13.05-.77-19.36" style="fill:none; stroke:#e9f9fc; stroke-miterlimit:10;"/><path d="M698.04,703.81c37.4-10.47,65.24-35.82,86.96-68.88" style="fill:none; stroke:#c6dbdd; stroke-miterlimit:10;"/><path d="M785,634.93c16.48-25.47,28.71-61.36,20.7-91.86" style="fill:none; stroke:#c9e0df; stroke-miterlimit:10;"/><path d="M805.71,543.07c4.52-12.85,12.54-17.9,20.3-29.61" style="fill:none; stroke:#e9f9fc; stroke-miterlimit:10;"/><path d="M826.01,513.46c3.71.08,21.33-11.46,14.47-14.68-11.46-.32-18.14-13.83-19.38-23.85-2.11-18.43,2.77-37.8,4.68-56.27" style="fill:none; stroke:#c6dbdd; stroke-miterlimit:10;"/><path d="M825.78,418.65c2.12-19.13,4.01-39.72-5.28-57.32" style="fill:none; stroke:#c9e0df; stroke-miterlimit:10;"/><path d="M820.49,361.33c5.73-1.31,11.52-1.26,17.4.16" style="fill:none; stroke:#e9f9fc; stroke-miterlimit:10;"/><path d="M837.89,361.49c.15.69,1.05,1.94,1.31.87-1.05-8.07-1.82-13.23-2.27-15.43-5.59-21.35-9.29-52.66-20.48-69.71-1.12,18.51-13.29,34.68-28.01,45.47" style="fill:none; stroke:#feddc8; stroke-miterlimit:10;"/><path d="M788.44,322.68c-1.83-5-4.65-9.21-8.45-12.66" style="fill:none; stroke:#e9f9fc; stroke-miterlimit:10;"/><path d="M779.99,310.02c32.01-20.05,36.93-75.82-1.34-91.15-11.35-4.84-34.12-4.93-41.19,6.05,26.33,2.69,31.48,32.66,18.16,51.27" style="fill:none; stroke:#c9e0df; stroke-miterlimit:10;"/><path d="M755.62,276.19c1.91-14.05-1.45-34.35-14.81-12.2" style="fill:none; stroke:#e9f9fc; stroke-miterlimit:10;"/><path d="M740.81,263.99c4.51-24.17-21.82-34.14-41.94-31.75" style="fill:none; stroke:#feddc8; stroke-miterlimit:10;"/><line x1="698.87" y1="232.24" x2="700.55" y2="223.26" style="fill:none; stroke:#e9f9fc; stroke-miterlimit:10;"/><path d="M700.55,223.26c27.46-10.21,43.89-35.3,49.58-63.21-2.6-5.03-24.27-1.57-28.73-.9-13.16,33.93-24.79,50.86-62.51,63.08-.97.32-1.7-.88-.98-1.59,7.55-7.41,13.53-15.42,17.93-24.07,22.18-45.91-29.94-55.34-9.67-73.4,33.86-55.53-54.65-73.11-37.58-8.71" style="fill:none; stroke:#feddc8; stroke-miterlimit:10;"/><path d="M628.59,114.47c-21.56-5.02-42.62-11.05-62.6-20.83" style="fill:none; stroke:#e9f9fc; stroke-miterlimit:10;"/><path d="M565.99,93.63c14.27-2.48,39.74-10.22,43.82-23.65-71.75,35.3-87.84-98.73-207.39-64.27" style="fill:none; stroke:#c9e0df; stroke-miterlimit:10;"/><path d="M565.99,93.63c-45.64,6.68-81.22-11.76-113.6-45.08-38.13-32.24-89.56-11.4-111.49,31.64" style="fill:none; stroke:#d0e3e6; stroke-miterlimit:10;"/><path d="M340.9,80.19c.63-34.37,30.98-63.9,61.52-74.47" style="fill:none; stroke:#b0d7af; stroke-miterlimit:10;"/><path d="M340.9,80.19c-66.88,92.69-124.05,23.31-201.5,45.16M628.59,114.47c1.96,6.36,11.17,13.41,10.9,18.64-26.55,28.74-27.87,59.99,2.5,87.51,1.21,7.15-33-12.96-35.91-16.42-14.08-10.6-20.44-27.69-25.47-43.98-4.27-2.58-29.68-5.3-30.18.66,6.85,42.13,50.38,80.01,93.35,61.83,19.3-2.59,30.87,10.85,56.77.55M698.87,232.24c-40.46,2.16-84.8,56.26-126.42,30.66-6.42-9.3,4.46-16.22,12.46-17.94,24.7-6.82,39.86,11.69,53,3.38,6.64-5.68-24.68-13.59-29.47-15-9.7-2.28-19.56-1.83-29.6,1.34-49.54,21.32-3.25,70.68,65.53,32.28,106.75-62.41,106.72,27.48,29.9-3.02-5.09-1.84-11.7,2.65-16.16,4.6-5.61,5.01,26.49,9.65,31.33,11.07,18.6,3.77,43.79,1.79,51.36-15.62" style="fill:none; stroke:#ffe2d1; stroke-miterlimit:10;"/><path d="M755.62,276.19c-24.71,34.8-79.21,23.73-112.47,14.97,36.9,31.96,92.74,46.41,136.85,18.86" style="fill:none; stroke:#d0e3e6; stroke-miterlimit:10;"/><path d="M788.44,322.68c-32.25,23.2,22.99-13.19,49.45,38.81" style="fill:none; stroke:#ffe2d1; stroke-miterlimit:10;"/><path d="M820.49,361.33c-13.19-18.97-41.07-13.36-48.54,8.19-.47-15.5-16.45-39.32-35.09-25.28-.76,2.52,3.51,6.05,3.52,7.32,5.99,11.22-.74,23.81-11.62,28.23-.79.32-1.72.04-2.19-.66-10.39-19.75-39.37-21.7-33.35,6.21,11.03,19.27,16.39,5.15,13.05,35.65" style="fill:none; stroke:#d0e3e6; stroke-miterlimit:10;"/><path d="M706.27,420.98c-.45,21.18-18.73,45.12-28,13.12-3.75-18.74-2.72-38.38,3.84-56.94.64-12.67,6.93-22.39,19.94-21.41,6.86.42,12.96,2.48,18.34,6.19.59.4,1.36-.14,1.18-.84-8.62-31.61-51.42-22.35-61.81,3.38-43.3,94,49.32,161.6,71.7,62.86" style="fill:none; stroke:#cfdee3; stroke-miterlimit:10;"/><path d="M731.47,427.35c5.58-42.47-10.5-20.17,15.58-44.37,2.68,26.76-2.22,56.89-6.29,83.29-1.98,11.59,15.65,13.14,23.03,11.49,9.42-7,6.64-35.94,10.41-68.22,3.61-47.18,32.5-37.51,24.01,6.22" style="fill:none; stroke:#d0e3e6; stroke-miterlimit:10;"/><path d="M798.2,415.77c-2.86,31.27-24,100.26,27.81,97.69" style="fill:none; stroke:#cfdee3; stroke-miterlimit:10;"/><path d="M805.71,543.07c-.2-3.08-9.51-21.82-11.51-17.75,13.61,40.51-8.92,82.92-35.71,112.86" style="fill:none; stroke:#d0e3e6; stroke-miterlimit:10;"/><path d="M758.5,638.19c-14.43,19.06-75.41,64.54-85.74,24.96,23.28-6.58,37.62-21.67,43-45.26,9.09-44.13-38.06-56.47-61.52-21.55-15.99,24.54-20.41,60.32-7.28,86.47-32.07,40.28-21.59-84.18-18.73-105.64" style="fill:none; stroke:#cfdee3; stroke-miterlimit:10;"/><path d="M628.23,577.16c28.69-4.95,49.69-35.55,78.62-36.44,57.04,1.91,44,76.18,17.9,107.29,95.36-57.6,60.63-208.77-55.22-130.43" style="fill:none; stroke:#ffe2d1; stroke-miterlimit:10;"/><path d="M669.53,517.57c-2.99-31.89-49.27-22-56.71,2.66-4.91,11.52-7.99,22.42-9.23,32.72" style="fill:none; stroke:#d0e3e6; stroke-miterlimit:10;"/><path d="M603.59,552.94c-.77.44-2.9,51.05-5.02,49.98-14.38-11.92-35.55.69-43.2,13.36-18.52,30.77-13.28,52.79-10.28,85.34-30.21,29.26-17.4-68.48-15.35-78.66,1.72-12.94-14.9-7.15-20.59-3.49-15.03,10.13-9.89,61.62-10.04,77.78,1.19,36.05,34.95,45.9,53.11,13.14,18.95,17.2,41.24,13.16,51.5-12.33,1.86-1.1,3.35,5.81,5.34,7.02,7.98,10.01,23.4,9.37,32.59,1.78,4.56-3.77,8.27-8.37,11.13-13.82.27-.53.98-.65,1.41-.23,12.13,11.45,27.2,14.02,43.85,11" style="fill:none; stroke:#cfdee3; stroke-miterlimit:10;"/><path d="M698.81,723.17c-29.92,7.77-68.65-3.55-93.82,31.39" style="fill:none; stroke:#ffe2d1; stroke-miterlimit:10;"/><path d="M590.43,750.1l9.23-10.38c.87-1.07-2.27-1.39-2.69-1.73" style="fill:none; stroke:#cfdee3; stroke-miterlimit:10;"/><path d="M596.97,737.99c-109.5-10.56-127.52,86.97-249.64,76.06" style="fill:none; stroke:#d0e3e6; stroke-miterlimit:10;"/><path d="M347.34,814.05c-51.85-4.14-90.59-14.48-135.34-43.55" style="fill:none; stroke:#cfdee3; stroke-miterlimit:10;"/><path d="M201.52,739.56c24.35-42.68,5.74-100.55-39.11-120.52-37.01-16.13-65.1-21.33-93-53.58" style="fill:none; stroke:#ffe2d1; stroke-miterlimit:10;"/><path d="M69.41,565.46c-28.38-37.04-36.2-91.12-32.1-134.94,11.87,26.95,16.84,44.37,28.1,76.47,4.85,14.08,11.84,27.62,29.86,23.71,1.73-.38,4.72-.16,4.95-2.93,2.82-32.42,12.88-70.85,28.88-98.05-2.91,20.08-4.41,46.47-3.71,64.7" style="fill:none; stroke:#d0e3e6; stroke-miterlimit:10;"/><path d="M125.39,494.41c1.06,31.75,5.67,66.8,26.26,91.74,21.03,29.06,76.99,32.93,89.26-5.21-54.78,18.57-80.79-40.96-83.12-87.93" style="fill:none; stroke:#cfdee3; stroke-miterlimit:10;"/><path d="M157.79,493.01c.54-41.93-2.12-94.01,27.13-127.13,1.26-5.6-11.32-6.04-15.29-6.04-54.62,1.49-70.31,65.77-85.58,107.15-9.62-28.53-17.86-53.91-30.55-84.8" style="fill:none; stroke:#d0e3e6; stroke-miterlimit:10;"/><path d="M63.06,371.54c4.87,7.54,7.09,19.2,11.98,26.16,4.42-25.73-37.93-93.2-8.41-107.21,7.15-1.86,10.76,5.66,12.51,11.44,6.47-.31,10.93-10.99,11.39-17.7" style="fill:none; stroke:#ffe2d1; stroke-miterlimit:10;"/><path d="M93.77,240.89c2.53-1.26,7.64-3.72,6.22-7.28-33.72-63.59,107.48-111.97,101.95,4.59" style="fill:none; stroke:#d0e3e6; stroke-miterlimit:10;"/><path d="M201.94,238.2c-.33,35-24.34,76.3-61.62,77.6,7.16-12.69,8.48-29.51,8.4-43.82" style="fill:none; stroke:#cfdee3; stroke-miterlimit:10;"/><path d="M148.72,271.99c.09-29.03-5.74-61.05,6.9-88.07-.45-5.43-17.28.67-20.31,2.89-28.26,21.37-16.8,57.96-18.18,90.28" style="fill:none; stroke:#d0e3e6; stroke-miterlimit:10;"/><path d="M117.13,277.09c-.08,15.27-.89,30.02-6.08,43.99-15.2,11.81-31.36,19.21-21.67,42.72.26.68,1.17.81,1.6.23,15.31-15.76,38.8-14.22,59.44-19.62,51.41-8.61,87-55.6,88.84-106.34" style="fill:none; stroke:#cfdee3; stroke-miterlimit:10;"/><path d="M239.27,238.07c3.7-55.3-32.05-107.33-91.55-98.82" style="fill:none; stroke:#d0e3e6; stroke-miterlimit:10;"/><path d="M628.23,577.16c-.53-3.18-.39-6.27.45-9.28" style="fill:none; stroke:#acd2ad; stroke-miterlimit:10;"/><line x1="628.68" y1="567.87" x2="632.71" y2="543.65" style="fill:none; stroke:#b0d7af; stroke-miterlimit:10;"/><path d="M632.71,543.65c7.45-1.98,9.94-2.17,13.72-8.46" style="fill:none; stroke:#ffe2d1; stroke-miterlimit:10;"/><path d="M646.43,535.19c.09,6.71,22.36-14.01,23.1-17.61" style="fill:none; stroke:#b0d7af; stroke-miterlimit:10;"/><path d="M157.79,493.01c-12.24-13.08-20.85-11.41-32.4,1.4" style="fill:none; stroke:#9dcd9e; stroke-miterlimit:10;"/><line x1="69.41" y1="565.46" x2="74.09" y2="574.39" style="fill:none; stroke:#b0d7af; stroke-miterlimit:10;"/><path d="M74.09,574.39c-38.93-24.93-64.03-67.45-71.14-112.5-.3-1.18-2.11-1.61-1.85.3M239.27,238.07c-14.08-7.25-23.23-7.61-37.32.13M785,634.93c-8.85-.48-17.69.62-26.51,3.26M596.97,737.99c-34.72,12.35-67.14,45.9-97.02,62.84-38.86,21.55-116.28,40.68-152.61,13.22M148.72,271.99c-.32-.32.04-6.58-1.14-5.91-9.57,5.33-19.72,9-30.45,11M825.78,418.65l-27.58-2.89M731.47,427.35c-7.98-3.23-16.39-5.36-25.19-6.37" style="fill:none; stroke:#9dcd9e; stroke-miterlimit:10;"/><path d="M646.43,535.19c12.59-27.33-11.62-21.55-13.72,8.46" style="fill:none; stroke:#d0e3e6; stroke-miterlimit:10;"/><path d="M628.68,567.87c-7.64-6.31-16-11.29-25.09-14.93" style="fill:none; stroke:#9dcd9e; stroke-miterlimit:10;"/><path d="M74.09,574.39c25.07,39.89,80.23,53.56,99.23,97.75" style="fill:none; stroke:#acd2ad; stroke-miterlimit:10;"/><path d="M162.44,92.1c20.12-6.16,48.82-13.02,70.33-12.82,36.22-47.75,67.59-8.28,105.82-49.83,10.98-9.62,21.5-15.74,32.89-22.72-69.14,3.91-152.8,36.03-209.04,85.37" style="fill:none; stroke:#c9e0df; stroke-miterlimit:10;"/><path d="M516.97,14.63c26.69,13.53,38.97,49.45,71.84,48.21,9.73-.16,16.39-7.75,10.41-16.88-14.49-17.84-56.72-25.85-81.2-32.46-.88-.3-1.97.52-1.06,1.13M679.63,204.01c31.12-12.8,40.06-57.76,27.24-88.88-3.72-2.8-37.26,16.78-33.99,21.93,16.85,18.82,20.74,45.19,6.74,66.95" style="fill:none; stroke:#feddc8; stroke-miterlimit:10;"/><path d="M317.68,311.29c3.28-1.19,12.46-2.89,15.02-5.39,10.83-8.84,22.75-15.23,35.78-19.19.53-.14.46-1.04-.14-1.03-39.88-1.24-77.7,1.44-113.7,18.96-43.62,17.55-72.82,85.26-14.51,103.68" style="fill:none; stroke:#ffe2d1; stroke-miterlimit:10;"/><path d="M235.66,429.83c-62.22-27.33-86.09,92.5-37.35,117.87,25.97,15.09,52.16-3.7,64.73-24.78,10.41,29.44,46.09,25.68,56.51-1.24,5.67,10.22,11.99,16.31,23.64,15" style="fill:none; stroke:#cfdee3; stroke-miterlimit:10;"/><path d="M343.18,536.69c13.08-.79,22.57-8.43,31.52-17.46" style="fill:none; stroke:#f9feff; stroke-miterlimit:10;"/><path d="M374.7,519.23c14.38,19.5,31.95,25.51,54.63,25.35" style="fill:none; stroke:#cfdee3; stroke-miterlimit:10;"/><path d="M429.33,544.58c-2.33,2.19-5.32,6.77-3,9.02,0,0,4.29.13,4.29.13" style="fill:none; stroke:#f9feff; stroke-miterlimit:10;"/><path d="M430.62,553.74c-22.41,3.12-43.51-10.77-58.7-22.47,12.35,26.09,42.12,38.16,69.59,40.6,50.12,6.4,102.26-47.17,147.93-11.89,4.64-44.51-42.92-51.75-76.03-37.64" style="fill:none; stroke:#ffe2d1; stroke-miterlimit:10;"/><path d="M513.41,522.34c-.55-8.45-3-16.13-7.36-23.07" style="fill:none; stroke:#f9feff; stroke-miterlimit:10;"/><path d="M506.04,499.26c4.75-4.72,8.14-10.19,10.18-16.45.17-.52.91-.51,1.05.03,1.83,7.06,5.63,11.61,11.38,13.62,10.57,3.68,22.48-1.92,26.06-13.18.23-.74-.23-1.5-.98-1.65-11.1-2.14-14.68-12.66-15.81-22.52" style="fill:none; stroke:#cfdee3; stroke-miterlimit:10;"/><line x1="537.92" y1="459.11" x2="556.82" y2="454.37" style="fill:none; stroke:#f9feff; stroke-miterlimit:10;"/><path d="M556.82,454.37c1.36,17.6,9.02,35.29,29.82,32.62,8.48-1.08,14.61-6.01,17.14-14.06.23-.71-.26-1.44-1-1.53-10.27-1.13-15.81-9.85-17.11-19.49-3.25-24.04-.77-47.34,1.11-71.12" style="fill:none; stroke:#cfdee3; stroke-miterlimit:10;"/><path d="M586.78,380.78l1.34-23.59c.03-.68.53-1.26,1.2-1.39,14.64-2.87,28.33-6.92,40.1-16.29,19.86-12.88,12.4-52.45-13.79-38.75-3.84,3.19-5.36,7.64-4.55,13.36-.28,4.77,9.46,5.68,6.64,9.75-6.88,6.11-20.17,13.72-28.63,10.28,1.3-18.58-3.88-39.16-28.15-34.83-1.72.29-5.77,2.57-5.88,5.46,3.58,8.27,8.43,21.12,5.7,30.05-12.29-1.23-24.73-1.07-37.31.45" style="fill:none; stroke:#d0e3e6; stroke-miterlimit:10;"/><path d="M479.85,313.43c16.83-7.25,30.45-18.11,39.17-34.41" style="fill:none; stroke:#cfdee3; stroke-miterlimit:10;"/><path d="M519.02,279.02c22.37-42.54,10.78-93.68,19.88-139.47,1.57-14.56,18.75-22.85,2.66-23.92-54.45.43-17.91,76.4-47.04,101.13-30.62,2.04,7.12-79.1-19.8-99.58-8.88-6.15-18.97-5.93-28.44-.09-.72.43-.79,1.46-.14,1.99,19.39,18.02,8.44,45.5,7.61,69.94-2.86,9.07,6.95,51.01-16.78,43.46-29.27-35.18,38.38-181.62-38.63-177.31-2.25.78-9.47,2.34-9.06,5.13,39.88,43.8-7.6,141.74,20.65,189.19,16.59,19.53,42.59,3.66,49.96-14.44,10.51,18.38,37.94,11.34,45.35-6.06-7.52,114.02-138.72,15.01-176.72,106.28" style="fill:none; stroke:#d0e3e6; stroke-miterlimit:10;"/><path d="M519.02,279.02l-21.37-2.43c-7.98,11.63-16.31,22.93-30.09,27.95-81.96,31.36-88.93-16.09-150.14,79.09" style="fill:none; stroke:#9dcd9e; stroke-miterlimit:10;"/><path d="M317.42,383.64c1.05-16.95,4.75-33.08,11.09-48.38" style="fill:none; stroke:#d2e8cf; stroke-miterlimit:10;"/><path d="M479.85,313.43c-18,7.54-40.61,7.29-61.36,6.93-77.12-5.07-75.67,73.13-78.4,132.17-1,21.73-1.43,39.79,5.08,57.75,2.27,6.28,6.19,11.54,11.77,15.8.66.51.84,1.44.39,2.15-3.1,4.92-7.81,7.75-14.15,8.46M235.66,429.83c29.26,25.53,4.18,75.43-30.12,81.88,5.55,28.57,44.99,14.27,51.87-6.57-4.54-32.73,10.51-104.05,57.29-82.4,0,0,2.71-39.1,2.71-39.1" style="fill:none; stroke:#cce4cd; stroke-miterlimit:10;"/><path d="M317.68,311.29c-101.7,29.43-55.28,95.69-25.74,48.62,5.65-2.58-.72,21.27-4,26.13-8.27,18.18-28.85,25.76-47.82,22.29" style="fill:none; stroke:#ffe5d8; stroke-miterlimit:10;"/><path d="M412.19,414.29c-.92,28.06-6.56,57.31.85,84.69,3.55,22.9,39.08,34.65,46.67,8.68-30.45-5.15-21.37-59.85-20.59-83.58M558.73,389.33c-2.04,21.33-4.09,43.65-1.91,65.04M537.92,459.11c-3.17-23.37.2-47.17,3.75-70.26,4.35-16.62-17.48-11.92-24.13-4-1.38,1.15-1.21,4.19-3.12,3.67-68.13-29.84-82.57,156.91-8.39,110.74" style="fill:none; stroke:#cce4cd; stroke-miterlimit:10;"/><path d="M513.41,522.34c-29.37,11.38-50.56,30.19-82.79,31.4" style="fill:none; stroke:#ffe5d8; stroke-miterlimit:10;"/><path d="M429.33,544.58c54.98-12.48-58.02,26.71-40.21-107.94,1.52-11.54,2.9-19.59-7.99-24.82-5.59-2.7-15.28-4.37-16.95,3.81-5.85,34.68-10.29,72.56,10.51,103.59" style="fill:none; stroke:#cce4cd; stroke-miterlimit:10;"/><path d="M586.78,380.78c-9.57,2.11-18.93,4.95-28.05,8.55" style="fill:none; stroke:#9dcd9e; stroke-miterlimit:10;"/><path d="M558.73,389.33c2.27-42.06,10.72-31.72-34.1-29.07-33.51,4.47-52.99,18.71-81.13,32.86-3.47.23-3.47,28.84-4.37,30.96" style="fill:none; stroke:#d2e8cf; stroke-miterlimit:10;"/><line x1="439.12" y1="424.08" x2="412.19" y2="414.29" style="fill:none; stroke:#9dcd9e; stroke-miterlimit:10;"/><path d="M412.19,414.29c-.33-.68,1.52-9.4-.27-8.91-7.72,1.27-21.99,1.95-20.07-10.24,1.39-11.04,18.71-4.58,22.54-12.05.85-14.45.37-28.16-4.72-41.09.59-6.32,10.6-6.09,16-5.56,14.84,2.4,18.25,21.1,17.02,33.51,18.04-8.56,51.33-34.28,80.77-34.68" style="fill:none; stroke:#d2e8cf; stroke-miterlimit:10;"/><path d="M379.36,91.61c-18.96-11.38-37.45,19.12-18.56,30.65,18.96,11.38,37.45-19.12,18.56-30.65" style="fill:none; stroke:#d0e3e6; stroke-miterlimit:10;"/><path d="M620.29,204.17c-13.18-22.3-10.17-47.71,6.96-67.54,2.28-5.56-30.93-24.71-34.34-21.1-8.1,22.94-8.39,52.38,7.77,72.12,3.59,4.47,16.66,19.87,19.61,16.52" style="fill:none; stroke:#ffe2d1; stroke-miterlimit:10;"/><path d="M399.11,250.71c.26-.62-.01-1.34-.62-1.62-16.26-4.32-18.11-22.79-18.35-37.32-.51-19.84,1.75-40.96,4.1-63.51.4-3.8.14-9.46-4.52-10.18-11.22-1.73-21.87,3.52-23.69,15.58-3.47,22.86-4.89,45.22-4.29,67.12.3,11,2.54,25.69,9.53,34.1,9.37,11.88,31.9,11.37,37.84-4.17M311.01,152.53c-58.98-34.24-90.57,121.84-27.64,121.86,15.96-1.42,21.13-13.77,27.32-23.95,3.62,21.54,33.31,23.06,39.42,3.55-34.41-21.74-12.2-69.86-11.93-108.14-.28-5.16-5.41-5.99-9.85-5.31-8.55.66-12.65,6.78-17.33,12" style="fill:none; stroke:#d0e3e6; stroke-miterlimit:10;"/><path d="M652.35,465.38c.04-2.7-2.86-1.79-6.96-4.12-8.22-3.42-11.06-21.09-11.62-29.68-1.49-22.31,1.24-46,4.3-68.18,3.76-14.96-14.71-7.52-20.92-3.06-13.99,11.48-16.45,98.18-.15,111.85,11.65,10.79,28.21,6.93,35.35-6.81M229.02,664.06c-17.98,75.88,52.76,163.17,125.45,104.14" style="fill:none; stroke:#cfdee3; stroke-miterlimit:10;"/><path d="M354.47,768.21c9.63,41.13,71.77,28.17,95.67,6.19-46.44,14.54-71.66-19.32-65.36-64.45" style="fill:none; stroke:#ffe2d1; stroke-miterlimit:10;"/><path d="M384.78,709.95c-2.04-15.25,18.5-42.65,3.42-50.91-23.15,11.22-58.02-3.78-77.25,16.76-6.97,9.65-8.3,25.07,2.18,33.25,2.71,1.21,4.25-7.78,6.6-8.72,6.7-7.23,26.87-5.81,36.15-5.66-5.82,96.56-101.66,53.43-86.34-25.17" style="fill:none; stroke:#cfdee3; stroke-miterlimit:10;"/><path d="M269.54,669.5c12.15-103.22,114.42-93.99,70.19-44.14-.92,3.23,6.09,4.09,8.52,4.81,37.51,6.13,49.17-44.99,19.07-62.69-64.17-31.78-132.08,32.96-138.3,96.58" style="fill:none; stroke:#d0e3e6; stroke-miterlimit:10;"/><path d="M269.54,669.5c-13.37-3.31-26.88-5.13-40.53-5.44" style="fill:none; stroke:#9dcd9e; stroke-miterlimit:10;"/><path d="M384.78,709.95c-.14.26-3.82,5.37-3.64,5.52-3.94,19.56-12.82,37.15-26.67,52.74" style="fill:none; stroke:#acd2ad; stroke-miterlimit:10;"/><path d="M527.89,572.89c-15.85-13.29-38.14,13.09-22.38,26.49,15.85,13.29,38.14-13.09,22.38-26.49M388.99,635.96c35.46-.22,4.44,74.43,18.77,96.87,4.01,10.57,14.88,15.46,25.84,14.56,11.68-.95,21.22-11,25.27-21.54.26-.68,1.21-.71,1.52-.04,5.17,17.53,33.28,21.05,38.28,2.01.11-.72-.32-1.4-1.01-1.6-13.26-1.71-15.88-25.68-16.63-32.56-.81-22.06,1.44-44.53,4.56-66.76.59-4.17-1.03-6.57-4.82-7.18-14.65-2.31-22.11,8.91-24.14,21.61-5.38,17.79,5.83,77.29-18.64,76.15-20.48-21.71,12.7-74.8-18.51-95.81-12.01-6.08-27.3-1.45-31.42,12.79-.23.69.22,1.43.94,1.52" style="fill:none; stroke:#cfdee3; stroke-miterlimit:10;"/><path d="M649.53,121.82c15.77-4.51,19.79-35.97.74-37.83-19.11,1.14-16.32,32.68-.74,37.83" style="fill:none; stroke:#ffe2d1; stroke-miterlimit:10;"/><path d="M305.73,175.61c-22.33-28-41.9,72.25-14.31,69.29,11.2-3.16,13.51-24.6,14.03-34.85.73-23.91,2.26-22.26.27-34.44" style="fill:none; stroke:#d0e3e6; stroke-miterlimit:10;"/><path d="M302.56,440.98c-19.92,9.01-20.99,49.45-12.46,67.61,7.94,16.27,21.1-2.57,20.78-13.09.71-12.54,7.75-55.7-8.31-54.52M200.98,494.56c12.75-3.29,23.98-19.57,24.5-33.09.96-7.37-4.1-16.73-12.1-11.45-11.48,8.24-12.81,31.37-12.4,44.54" style="fill:none; stroke:#cce4cd; stroke-miterlimit:10;"/><path d="M384.58,363.95c-16.2-9.68-33.94,21.3-17.39,30.37,16.2,9.68,33.93-21.3,17.39-30.37" style="fill:none; stroke:#d2e8cf; stroke-miterlimit:10;"/><path d="M511.17,411.48c-21.25-26.83-40.22,68.91-13.86,66.16,10.71-2.99,12.98-23.46,13.5-33.25.77-22.85,2.22-21.27.36-32.9" style="fill:none; stroke:#cce4cd; stroke-miterlimit:10;"/><path d="M668.88,646.79c14.92-6.96,27.88-25.81,23.32-42.52-.81-2.92-2.66-4.43-5.56-4.53-15.52,2.12-21.65,35.22-17.76,47.05M595.23,625.8c-26.2-26.4-36.96,79.62-7.84,64.15,13.42-11.86,11.57-48.03,7.84-64.15" style="fill:none; stroke:#cfdee3; stroke-miterlimit:10;"/><path d="M565.99,93.63c-45.64,6.68-81.22-11.76-113.6-45.08-38.13-32.24-89.56-11.4-111.49,31.64C345.18,14.49,422.52-12.69,477.96,7.44c46.58,9.12,77.45,92.53,131.85,62.54-4.13,13.44-29.52,21.14-43.82,23.65h0Z" style="fill:#a3d1a0;"/><path d="M162.44,92.1C218.65,42.77,302.36,10.63,371.48,6.73c-11.41,7-21.91,13.1-32.89,22.73-38.63,41.72-69.28,1.91-105.82,49.83-21.5-.2-50.21,6.66-70.33,12.82h0Z" style="fill:#a3d1a0;"/><path d="M402.42,5.72c-30.54,10.56-60.9,40.11-61.52,74.47-72.46,100.96-139.25,9.18-224.47,54.02,39.66-50.85,109.48-29.82,164.25-53.8,42.61-24.15,68.85-66.38,121.74-74.69Z" style="fill:#ffc6af;"/><path d="M516.97,14.63c-.91-.6.16-1.43,1.05-1.13,17.41,3.06,43.12,12.15,56.81,16.96,8.59,3.13,19.02,7.29,24.39,15.49,5.98,9.12-.68,16.72-10.41,16.88-32.88,1.24-45.16-34.68-71.84-48.21h0Z" style="fill:#ffc6af;"/><path d="M519.02,279.02l-21.37-2.43c-7.98,11.63-16.31,22.93-30.09,27.95-81.96,31.36-88.93-16.09-150.14,79.09,11.36-168.31,177.24-25.79,187.81-154.66-7.42,17.4-34.83,24.44-45.35,6.06-7.35,18.08-33.39,33.99-49.96,14.44-28.25-47.43,19.24-145.39-20.64-189.18-.55-3.07,6.96-4.09,9.05-5.13,76.98-4.34,9.39,142.06,38.64,177.3,23.73,7.56,13.93-34.42,16.78-43.46.82-24.44,11.78-51.92-7.61-69.94-.65-.53-.58-1.56.14-1.99,9.47-5.84,19.57-6.06,28.44.09,27,20.72-10.91,101.39,19.79,99.58,29.13-24.67-7.39-100.74,47.04-101.13,16.1,1.06-1.07,9.33-2.66,23.93-9.11,45.81,2.5,96.92-19.88,139.47h0Z" style="fill:#a3d1a0;"/><path d="M700.55,223.26c-27.11,10.39-37.52-3.31-56.77-.55-41.27,19.08-93.79-23.32-91.61-64.35,48.74-5.91,17.22,15.16,53.92,45.84,2.87,3.47,37.06,23.51,35.91,16.42-30.4-27.56-29.02-58.79-2.5-87.51.2-5.34-8.91-12.21-10.9-18.64-16.38-69.39,79.05-42.07,32.7,15.29-2.85,9.89,13.13,17.28,15.64,27.16,22.92,43.8-52.48,81.87,1.39,57.36,20.42-10.3,36.47-29.66,40.52-52.34.12-5.34,30.09-6.13,31.3-1.89-5.69,27.91-22.12,53.01-49.58,63.21M649.53,121.82c15.77-4.51,19.79-35.97.74-37.83-19.11,1.14-16.32,32.68-.74,37.83Z" style="fill:#ffc6af;"/><path d="M379.36,91.61c18.89,11.54.4,42.03-18.56,30.65-18.89-11.54-.4-42.03,18.56-30.65h0Z" style="fill:#a3d1a0;"/><path d="M679.63,204.01c14-21.77,10.11-48.13-6.74-66.95-3.34-5.16,30.24-24.65,33.99-21.93,12.82,31.09,3.87,76.12-27.24,88.88h0Z" style="fill:#ffc6af;"/><path d="M620.29,204.17c-2.82,3.48-16.13-12.19-19.61-16.52-16.16-19.74-15.87-49.18-7.77-72.12,3.04-3.87,36.85,15.77,34.33,21.09-17.14,19.81-20.12,45.31-6.96,67.54h0Z" style="fill:#ffc6af;"/><path d="M399.11,250.71c-5.94,15.53-28.48,16.07-37.84,4.17-6.99-8.42-9.23-23.1-9.53-34.1-.61-21.9.82-44.27,4.29-67.12,1.82-12.06,12.47-17.31,23.69-15.58,4.66.72,4.92,6.38,4.52,10.18-2.35,22.55-4.61,43.68-4.1,63.51.23,14.53,2.09,33.01,18.35,37.32.61.28.88,1,.62,1.62h0Z" style="fill:#a3d1a0;"/><path d="M239.27,238.07c-14.08-7.25-23.23-7.61-37.32.13,2.08-30.53-11.71-70.73-47.68-71.04-34.65-1.85-74.9,31.99-54.27,66.45-1.48,11.84-21.49,9.79-28.3,3.25-50.56-96.87,176.63-159.37,167.57,1.21h0Z" style="fill:#a3d1a0;"/><path d="M311.01,152.53c4.65-5.18,8.8-11.38,17.33-12,4.43-.68,9.57.15,9.85,5.31-.27,38.28-22.49,86.39,11.93,108.14-6.11,19.51-35.8,17.99-39.42-3.55-6.18,10.15-11.32,22.54-27.32,23.95-62.94,0-31.35-156.1,27.64-121.86M305.73,175.61c-22.33-28-41.9,72.25-14.31,69.29,11.2-3.16,13.51-24.6,14.03-34.85.73-23.91,2.26-22.26.27-34.44h0Z" style="fill:#a3d1a0;"/><path d="M148.72,271.99c-.32-.32.04-6.58-1.14-5.91-9.57,5.33-19.72,9-30.45,11,1.36-32.29-10.08-68.94,18.18-90.28,3.1-2.28,19.82-8.27,20.32-2.89-12.64,27.03-6.81,59.03-6.9,88.07h0Z" style="fill:#a3d1a0;"/><path d="M779.99,310.02c-44.12,27.54-99.93,13.11-136.85-18.86.2-1.87,10.39,2.63,13.85,3.2,100.92,30.61,135.07-57.49,80.47-69.45,7.07-10.98,29.84-10.88,41.19-6.05,38.27,15.34,33.35,71.1,1.34,91.15h0Z" style="fill:#a3d1a0;"/><path d="M239.27,238.07c-1.85,50.75-37.41,97.72-88.84,106.34-20.62,5.4-44.16,3.87-59.44,19.62-.43.58-1.34.45-1.6-.23-9.67-23.52,6.46-30.91,21.67-42.72,5.19-13.97,6-28.73,6.08-44,10.91-1.37,21.61-7.23,31.07-10.67,1.39,16.12-.07,34.95-7.88,49.39,37.29-1.31,61.3-42.6,61.62-77.61,14.09-7.74,23.25-7.38,37.32-.13Z" style="fill:#9ac79e;"/><path d="M698.87,232.24c76.45,1.89,44.13,75.46-40.59,39.33-4.78-2.87,6.67-5.66,7.84-6.84,2.54-1.23,5.44-1.5,8.16-.78,13.63,3.6,21.64,5.86,33.97,6.19,45.31-4.34,12.69-53.31-63.87-3.17-87.98,48.98-122.52-41.85-35.94-33.63,5.63,1.71,44.36,11.41,25.11,16.95-2.35,1.05-5.02,1.1-7.41.15-13.7-5.52-26.44-8.65-41.24-5.47-8,1.72-18.89,8.63-12.46,17.93,38.76,25.93,87.55-28.59,126.42-30.65Z" style="fill:#ffc6af;"/><path d="M90.54,284.23c-.32,6.43-5.14,17.66-11.39,17.7-1.75-5.78-5.36-13.3-12.5-11.44-29.82,18.45,13.22,79.76,8.4,107.2-6.82-12.9-12.08-29.09-20.62-41.86-78.54-89.94,32.02-133.94,36.11-71.61h0Z" style="fill:#ffc6af;"/><path d="M519.02,279.02c-27.37,49.03-76.09,39.04-122.34,42.66-31.89,6.32-46.54,30.01-50.74,61.55-1.72,40.6-21.33,109.05,10.98,142.84.67.5.84,1.44.4,2.15-9.84,14.58-31.36,9.59-37.78-6.54-10.42,26.89-46.1,30.71-56.51,1.24-23.14,42.99-80.58,39.56-89.23-13.21-8.66-36.37,16.36-101.84,61.86-79.89,31.33,28.38.56,74.16-30.82,83.74,8.01,18.6,31.33,18.08,43.59,3.84,5.94-6.56,8.47-9.43,9.27-13.61-5.58-31.44,11.58-103.38,56.38-80.8,1.62.91,2.76-39.11,3.33-39.36,5.64-8.43,11.51-16.69,17.6-24.79,40.46-71.46,122.5-15.28,162.63-82.26,0,0,21.37,2.43,21.37,2.43M302.56,440.98c-19.92,9.01-20.99,49.45-12.46,67.61,7.94,16.27,21.1-2.57,20.78-13.09.71-12.54,7.75-55.7-8.31-54.52M200.98,494.56c12.75-3.29,23.98-19.57,24.5-33.09.96-7.37-4.1-16.73-12.1-11.45-11.48,8.24-12.81,31.37-12.4,44.54h0Z" style="fill:#9ac79e;"/><path d="M837.89,361.49c-11.58-22.21-32.46-33.94-57.7-29.7-1.15.25-2.66-.7-1.56-1.75,18.14-12.37,36.69-29.62,37.81-52.83,11.2,17.09,14.9,48.32,20.49,69.71.45,2.21,1.21,7.36,2.26,15.44-.26,1.09-1.17-.21-1.31-.87h0Z" style="fill:#ffc6af;"/><path d="M317.68,311.29c-101.64,29.38-55.35,95.71-25.74,48.62,5.65-2.5-.71,21.22-4,26.13-80.78,91.42-156.41-111.72,80.4-100.34.56,0,.71.87.14,1.02-13.02,3.96-24.95,10.35-35.78,19.19-2.46,2.4-11.8,4.27-15.02,5.39h0Z" style="fill:#ffc6af;"/><path d="M586.78,380.78c-9.57,2.11-18.93,4.95-28.05,8.55,2.27-42.06,10.72-31.72-34.1-29.07-33.51,4.47-52.99,18.71-81.13,32.86-3.47.23-3.47,28.84-4.37,30.96l-26.93-9.79c-.42-.2,1.57-9.74-.27-8.91-7.72,1.27-21.99,1.95-20.07-10.24.59-3.71,2.66-5.86,6.22-6.45,5.75-1.8,13.75-.76,16.32-5.6.84-14.44.38-28.16-4.72-41.09.57-6.32,10.62-6.1,16-5.56,14.84,2.4,18.25,21.1,17.02,33.51,36.63-22.5,68.89-40.46,118.74-35.72,1.44-10.51-3.92-21.71-6.17-30.76,1.85-2.43,3.74-3.81,5.68-4.16,26.47-4.82,27.44,18.48,29.16,35.88,10.61-.36,19.83-4.14,27.62-11.33,2.91-4.06-6.98-4.98-6.64-9.75-.81-5.72.71-10.16,4.55-13.35,26.11-13.69,33.71,25.83,13.79,38.75-11.77,9.37-25.45,13.41-40.09,16.29-.66.13-1.17.71-1.2,1.39,0,0-1.34,23.59-1.34,23.59h0Z" style="fill:#a3d1a0;"/><path d="M53.5,382.2c13.03,30.51,20.55,57.75,31.01,84.8,13.58-44.72,40.37-124.11,100.31-103.37-26.66,35.63-27.79,85.31-27.03,129.38-12.24-13.08-20.85-11.41-32.4,1.4-1.52-17.77,2.45-46.96,3.01-64.91-14.62,29.72-25.77,64.74-28.17,98.27-.23,2.77-3.22,2.56-4.95,2.93-18.02,3.91-25.01-9.63-29.86-23.71-11.25-32.09-16.23-49.52-28.1-76.47-4.1,43.83,3.71,97.88,32.09,134.94,0,0,4.68,8.92,4.68,8.92-38.93-24.93-64.03-67.45-71.14-112.5-.3-1.18-2.11-1.61-1.85.3-2.2-42.1-2.91-102.66,15.68-140.82,5.17,23.81,26.51,38.93,36.72,60.83h0Z" style="fill:#a3d1a0;"/><path d="M820.49,361.33c9.3,17.6,7.41,38.19,5.28,57.32l-27.58-2.89c.55-12.75,5.47-32.05-7.92-37.55-22.45.31-16.74,75.66-19.54,76.12-2.18,9.36-.15,19.85-6.96,23.43-7.38,1.64-25.01.1-23.03-11.49,4.07-26.39,8.98-56.54,6.3-83.29-26.08,24.18-10,1.97-15.58,44.37-7.98-3.23-16.39-5.36-25.19-6.37,3.35-30.46-2.04-16.41-13.05-35.65-5.99-27.94,22.94-25.95,33.35-6.21.48.71,1.4.98,2.2.66,10.89-4.42,17.61-17.01,11.62-28.23-.02-1.29-4.28-4.79-3.52-7.32,18.65-14.03,34.63,9.8,35.09,25.28,7.45-21.54,35.38-27.15,48.54-8.19h0Z" style="fill:#a3d1a0;"/><path d="M706.27,420.98c8.81,1.01,17.21,3.13,25.19,6.37-22.42,98.77-114.99,31.08-71.7-62.86,10.38-25.71,53.19-35,61.81-3.38.17.69-.59,1.24-1.18.84-5.37-3.71-11.48-5.78-18.34-6.19-13.02-.97-19.29,8.74-19.94,21.41-6.56,18.56-7.59,38.21-3.84,56.94,9.24,31.95,27.54,8.13,28-13.12h0Z" style="fill:#9ac79e;"/><path d="M652.35,465.38c-7.13,13.75-23.69,17.6-35.34,6.81-16.27-13.7-13.9-100.07.14-111.85,6.22-4.41,24.69-11.95,20.93,3.06-2.05,25.5-13.93,79.96,7.32,97.86,4.12,2.35,6.98,1.37,6.96,4.11h0Z" style="fill:#9ac79e;"/><path d="M384.58,363.95c16.54,9.07-1.19,40.06-17.39,30.37-16.54-9.07,1.19-40.06,17.39-30.37Z" style="fill:#a3d1a0;"/><path d="M537.92,459.11c1.13,9.86,4.71,20.39,15.81,22.52.75.14,1.21.91.98,1.65-5.42,18.36-33.38,19.64-37.44-.43-.14-.53-.88-.55-1.05-.03-2.04,6.25-5.43,11.72-10.18,16.45-63.07,42.34-63.87-98.1-13.21-112.62,15.38-6.18,21.39,7.33,24.72-1.79,6.64-7.93,28.48-12.62,24.13,4-3.56,23.09-6.92,46.89-3.75,70.26M511.17,411.48c-21.25-26.83-40.22,68.91-13.86,66.16,10.71-2.99,12.98-23.46,13.5-33.25.77-22.85,2.22-21.27.36-32.9h0Z" style="fill:#9ac79e;"/><path d="M586.78,380.78c-1.88,23.78-4.36,47.08-1.11,71.12,1.3,9.64,6.84,18.37,17.11,19.49.74.09,1.23.82,1,1.53-2.53,8.06-8.66,12.98-17.14,14.06-44.57,2.39-28.37-69.81-27.91-97.66,9.12-3.6,18.48-6.44,28.05-8.55Z" style="fill:#9ac79e;"/><path d="M429.33,544.58c-70.34,2.68-77.26-76.39-65.14-128.95,1.67-8.19,11.36-6.51,16.95-3.81,10.89,5.23,9.5,13.28,7.98,24.82-17.81,134.67,95.19,95.46,40.21,107.94h0Z" style="fill:#9ac79e;"/><path d="M439.12,424.08c-.77,23.69-9.87,78.43,20.59,83.58-7.58,25.97-43.11,14.23-46.66-8.68-7.41-27.39-1.78-56.63-.85-84.69l26.93,9.79Z" style="fill:#9ac79e;"/><path d="M825.78,418.65c-1.23,24.26-18.24,71.52,14.7,80.12,6.83,3.31-10.7,14.68-14.46,14.68-51.81,2.53-30.67-66.36-27.81-97.69l27.58,2.89Z" style="fill:#9ac79e;"/><path d="M74.09,574.39c25.07,39.89,80.23,53.56,99.23,97.75-38.17-43.67-99.58-30.33-137.77-90.46-23.44-34.81-31.38-79.31-34.24-120.69.71-.29,1.5.14,1.63.89,3.91,22.19,10.53,43.47,22.83,62.36,12.16,18.74,28.34,38.37,48.31,50.14h0Z" style="fill:#9ac79e;"/><path d="M157.79,493.01c2.32,46.99,28.37,106.49,83.12,87.93-12.28,38.14-68.22,34.28-89.26,5.21-20.6-24.94-25.2-59.98-26.26-91.74,11.55-12.81,20.16-14.48,32.4-1.4h0Z" style="fill:#9ac79e;"/><path d="M628.23,577.16c-1.26-6.5,3.86-26.77,4.48-33.51,7.45-1.98,9.94-2.17,13.72-8.46.09,6.71,22.36-14.01,23.1-17.61,115.98-78.36,150.48,72.95,55.23,130.44,26.1-31.09,39.13-105.4-17.91-107.29-28.93.9-49.92,31.49-78.61,36.44h0Z" style="fill:#ffc6af;"/><path d="M669.53,517.57c-.62,3.48-23.05,24.37-23.1,17.62,1.88-3.84,3.18-7.93,3.88-12.27.85-7.54-9.42-5.29-11.2-.52-6.06,10.26-8,33.09-10.42,45.48-7.64-6.31-16-11.29-25.09-14.93,1.24-10.29,4.32-21.2,9.23-32.72,7.44-24.66,53.74-34.55,56.71-2.66h0Z" style="fill:#a3d1a0;"/><path d="M430.62,553.74c50.21-.16,110.39-72.07,153.65-19.65,3.57,4.57,9.09,25.54,3.54,26.44-56.37-44.85-121.81,49.4-195.99-6.03-8.88-5.64-15.51-13.38-19.91-23.22,15.26,11.7,36.25,25.58,58.71,22.47Z" style="fill:#ffc6af;"/><path d="M805.71,543.07c8,30.49-4.23,66.39-20.7,91.86-8.85-.48-17.69.62-26.51,3.26,26.77-29.92,49.32-72.37,35.71-112.86,1.94-4.17,11.34,14.77,11.51,17.74h0Z" style="fill:#a3d1a0;"/><path d="M628.68,567.87c-.05,27.38-16.26,120.89,9.89,122.55,11.25-2.73,8.47-8.62,4.35-16.97-7.48-24.53-3.1-55.38,11.32-77.13,23.43-34.86,70.62-22.64,61.52,21.56-5.38,23.59-19.72,38.68-43,45.26,10.41,39.56,71.18-5.85,85.73-24.96,8.82-2.64,17.66-3.74,26.51-3.26-26.68,41.22-85.41,93.25-132.22,58.11-9.81,22.19-38.12,26.51-49.06,5.02-6.79,21.78-34.87,32.12-49.97,12.24-19.45,29.51-52.51,26.13-54.63-13.05.13-16.24-4.99-67.52,10.03-77.78,5.69-3.65,22.31-9.44,20.59,3.49-2.05,10.17-14.85,107.92,15.35,78.66-2.99-32.68-8.29-54.4,10.28-85.35,7.68-12.6,28.8-25.33,43.2-13.35,2.09,1.1,4.29-49.6,5.02-49.99,9.1,3.64,17.46,8.62,25.09,14.93M668.88,646.79c14.92-6.96,27.88-25.81,23.32-42.52-.81-2.92-2.66-4.43-5.56-4.53-15.52,2.12-21.65,35.22-17.76,47.05M595.23,625.8c-26.2-26.4-36.96,79.62-7.84,64.15,13.42-11.86,11.57-48.03,7.84-64.15h0Z" style="fill:#9ac79e;"/><path d="M269.54,669.5c-13.37-3.31-26.88-5.13-40.53-5.44,14.28-121.18,173.03-135.73,153.06-52.12-5.32,13.74-19.45,20.37-33.83,18.23-2.38-.66-9.47-1.62-8.52-4.81,44.24-49.84-58.02-59.11-70.18,44.14h0Z" style="fill:#a3d1a0;"/><path d="M201.52,739.56c-5.17,7.99-19.59,26.31-28.79,25.76,1.89-56.53-80.56-42.16-110.58-126.17-.8-2.14-7.49-14.42-4.14-14.07,34.56,33.74,105.58,29.76,124.79,84.22-2-78.05-82.83-84.54-113.4-143.84,27.77,32.17,56.1,37.51,93,53.58,44.85,19.96,63.47,77.85,39.11,120.52h0Z" style="fill:#ffc6af;"/><path d="M527.89,572.89c15.75,13.41-6.54,39.78-22.39,26.49-15.75-13.41,6.54-39.78,22.39-26.49h0Z" style="fill:#9ac79e;"/><path d="M388.99,635.96c-.72-.09-1.17-.82-.94-1.52,4.12-14.24,19.4-18.89,31.42-12.79,31.25,21.15-1.99,73.98,18.51,95.81,24.45,1.16,13.27-58.32,18.64-76.15,2.03-12.71,9.48-23.93,24.14-21.62,3.8.61,5.41,3,4.82,7.18-3.12,22.23-5.37,44.7-4.56,66.76.73,6.88,3.39,30.84,16.63,32.56.69.2,1.13.88,1.01,1.6-5.02,19.02-33.09,15.54-38.27-2.01-.3-.66-1.26-.63-1.52.04-4.04,10.54-13.59,20.59-25.27,21.54-10.96.91-21.83-3.98-25.84-14.55-14.36-22.52,16.75-96.97-18.77-96.87h0Z" style="fill:#9ac79e;"/><path d="M384.78,709.95c-.47.5-3.51,5.08-3.64,5.52-3.94,19.56-12.82,37.15-26.67,52.74-72.72,59.04-143.43-28.3-125.45-104.14,13.64.32,27.16,2.14,40.53,5.44-15.27,78.74,80.55,121.63,86.34,25.17-9.29-.14-29.46-1.57-36.15,5.66-2.35.95-3.93,10-6.6,8.72-10.48-8.19-9.15-23.61-2.18-33.25,19.24-20.55,54.08-5.54,77.24-16.77,15.09,8.31-5.48,35.62-3.42,50.91h0Z" style="fill:#9ac79e;"/><path d="M604.99,754.56c37.44-46.37,76.95-11.37,123.11-46.28,3.49.41-9.79,11.44-9.31,11.8-47.67,47.73-108.49,83.02-173.4,101.73,27.48-16.38,43.36-39.16,59.6-67.26h0Z" style="fill:#ffc6af;"/><path d="M384.78,709.95c-6.31,45.21,18.97,78.96,65.36,64.45-23.88,21.98-86.07,34.94-95.67-6.19,13.85-15.59,22.73-33.18,26.67-52.74-.17-.17,3.5-5.24,3.64-5.52h0Z" style="fill:#ffc6af;"/><path d="M596.97,737.99c-34.72,12.35-67.14,45.9-97.02,62.84-38.86,21.55-116.28,40.68-152.61,13.22,122.03,10.93,140.12-86.61,249.64-76.06Z" style="fill:#a3d1a0;"/><path d="M590.43,750.1c-61.15,130.99-302.61,113.82-383.87,18.15,47.12,28.24,86.71,42.55,140.78,45.8,36.27,27.43,113.78,8.34,152.61-13.22,29.89-16.92,62.32-50.51,97.03-62.84.42.35,3.55.66,2.69,1.73,0,0-9.23,10.38-9.23,10.38h0Z" style="fill:#9ac79e;"/></svg>